<svg width="136" height="32" viewBox="0 0 136 32" fill="none" xmlns="http://www.w3.org/2000/svg">
<g clip-path="url(#clip0_2020_400)">
<path d="M11.64 10.12H2.96V15.2H10.24V18H2.96V26H0V7.29999H11.64V10.12Z" fill="white"/>
<path d="M23.96 23.3V25.98H20.48C18.08 25.98 16.66 24.36 16.66 22.08V14.94H12.6V12.22H19.62V22.4C19.62 23.06 19.78 23.28 20.48 23.28H23.96V23.3ZM20.2 6V10.04H16.06V6H20.2Z" fill="white"/>
<path d="M26.26 26V12.26H29.22V14.28H29.52C30.14 12.86 31.44 11.98 33.26 11.98H33.36C36 11.98 37.78 13.88 37.78 17.32V25.98H34.82V17.56C34.82 15.58 33.86 14.78 32.42 14.78H32.32C30.3 14.78 29.22 16.1 29.22 18.12V25.96H26.26V26Z" fill="white"/>
<path d="M40.76 26V12.26H43.72V14.28H44.02C44.64 12.86 45.94 11.98 47.76 11.98H47.86C50.5 11.98 52.28 13.88 52.28 17.32V25.98H49.32V17.56C49.32 15.58 48.36 14.78 46.92 14.78H46.82C44.8 14.78 43.72 16.1 43.72 18.12V25.96H40.76V26Z" fill="white"/>
<path d="M60.8 26.28C57.36 26.28 54.9 24.2 54.9 19.92V18.38C54.9 14.1 57.36 11.98 60.8 11.98H60.96C64.4 11.98 66.86 14.1 66.86 18.38V19.92C66.86 24.2 64.4 26.28 60.96 26.28H60.8ZM60.96 23.6C62.88 23.6 64 22.7 64 19.92V18.38C64 15.58 62.88 14.7 60.96 14.7H60.8C58.88 14.7 57.78 15.58 57.78 18.38V19.92C57.78 22.7 58.88 23.6 60.8 23.6H60.96Z" fill="white"/>
<path d="M69.48 26V12.26H72.18V14.1H72.48C72.78 12.84 73.68 11.98 74.9 11.98H75C76.14 11.98 77.1 12.7 77.54 14.1H77.84C78.26 12.84 79.14 11.98 80.42 11.98H80.52C82.1 11.98 83.38 13.22 83.38 15.62V25.98H80.66V16.3C80.66 15.04 80.18 14.6 79.48 14.6H79.38C78.5 14.6 77.78 15.2 77.78 16.72V26H75.08V16.32C75.08 15.06 74.58 14.62 73.88 14.62H73.78C72.9 14.62 72.18 15.22 72.18 16.74V26.02H69.48V26Z" fill="white"/>
<path d="M97.96 19.94H88.88C88.88 22.68 89.98 23.58 91.9 23.58H92.06C93.5 23.58 94.48 23.12 94.94 21.88H97.82C97.12 24.82 94.92 26.26 92.06 26.26H91.9C88.46 26.26 86 24.18 86 19.9V18.36C86 14.08 88.46 11.96 91.9 11.96H92.06C95.5 11.96 97.96 14.08 97.96 18.36V19.92V19.94ZM91.9 14.7C90.12 14.7 89.04 15.46 88.92 17.8H95.08C94.94 15.46 93.86 14.7 92.06 14.7H91.9Z" fill="white"/>
<path d="M100.56 26V12.26H103.52V14.28H103.82C104.44 12.86 105.74 11.98 107.56 11.98H107.66C110.3 11.98 112.08 13.88 112.08 17.32V25.98H109.12V17.56C109.12 15.58 108.16 14.78 106.72 14.78H106.62C104.6 14.78 103.52 16.1 103.52 18.12V25.96H100.56V26Z" fill="white"/>
<path d="M125.82 23.3H128.06V25.98H123.26L123.04 23.6H122.72C122.14 24.92 120.78 26.26 118.46 26.26H118.36C116.04 26.26 114.44 24.7 114.44 22.4V22.3C114.44 20.02 115.98 18.78 119.1 18.46L123 18.02V17.6C123 15.4 122.18 14.64 120.62 14.64H120.52C119.16 14.64 118.02 15.16 117.86 17.16H114.88C115.22 13.54 117.54 11.98 120.64 11.98H120.72C124.08 11.98 125.84 13.82 125.84 17.58V23.32L125.82 23.3ZM119.1 23.74C120.96 23.74 122.94 22.4 123 20.1L119.56 20.48C117.78 20.68 117.24 21.3 117.24 22.2V22.28C117.24 23.22 117.88 23.74 119 23.74H119.1Z" fill="white"/>
<path d="M130.68 26V21.92H134.74V26H130.68Z" fill="white"/>
</g>
<defs>
<clipPath id="clip0_2020_400">
<rect width="136" height="32" fill="white"/>
</clipPath>
</defs>
</svg>
